<svg xmlns="http://www.w3.org/2000/svg" height="24px" viewBox="0 -960 960 960" width="24px" fill="currentColor">
  <script type="text/ecmascript">
    <![CDATA[
      function getColor() {
        var query = window.location.search.substring(1);
        var vars = query.split('&');
        for (var i = 0; i < vars.length; i++) {
          var pair = vars[i].split('=');
          if (pair[0] == 'color') {
            return decodeURIComponent(pair[1]);
          }
        }
        return "#000000";
      }

      document.documentElement.style.fill = getColor();
    ]]>
  </script>
<path d="m344-60-76-128-144-32 14-148-98-112 98-112-14-148 144-32 76-128 136 58 136-58 76 128 144 32-14 148 98 112-98 112 14 148-144 32-76 128-136-58-136 58Zm136-220q17 0 28.5-11.5T520-320q0-17-11.5-28.5T480-360q-17 0-28.5 11.5T440-320q0 17 11.5 28.5T480-280Zm-40-160h80v-240h-80v240Z"/>
</svg>